/* XPM */
static char * icon32_xpm[] = {
"32 32 295 2",
"  	c None",
". 	c #9C00FD",
"+ 	c #9A00FA",
"@ 	c #9900F8",
"# 	c #9801F6",
"$ 	c #9501F5",
"% 	c #9401F4",
"& 	c #9301F1",
"* 	c #9201F0",
"= 	c #9101ED",
"- 	c #8F01EC",
"; 	c #8E02EB",
"> 	c #8D02E9",
", 	c #8B02E8",
"' 	c #8A02E5",
") 	c #8802E4",
"! 	c #8702E3",
"~ 	c #8603E1",
"{ 	c #8503E0",
"] 	c #8303DE",
"^ 	c #8103DC",
"/ 	c #9900F9",
"( 	c #9801F7",
"_ 	c #9601F6",
": 	c #9501F4",
"< 	c #9401F2",
"[ 	c #9101EE",
"} 	c #9001ED",
"| 	c #8F02EB",
"1 	c #8E02EA",
"2 	c #8B02E9",
"3 	c #8A02E7",
"4 	c #8902E5",
"5 	c #8802E3",
"6 	c #8602E2",
"7 	c #8403DF",
"8 	c #8203DD",
"9 	c #8103DB",
"0 	c #7F03D9",
"a 	c #9701F6",
"b 	c #9201EF",
"c 	c #8003DA",
"d 	c #7D04D8",
"e 	c #9501F3",
"f 	c #9301F2",
"g 	c #8D02EA",
"h 	c #8A02E6",
"i 	c #8003DB",
"j 	c #7F03DA",
"k 	c #7E03D8",
"l 	c #7D04D6",
"m 	c #9401F1",
"n 	c #8F02EC",
"o 	c #8702E2",
"p 	c #8403E0",
"q 	c #7D03D8",
"r 	c #7C04D5",
"s 	c #9101EF",
"t 	c #9001EC",
"u 	c #8902E4",
"v 	c #8203DC",
"w 	c #7D04D7",
"x 	c #7A05D3",
"y 	c #8A02E8",
"z 	c #8C02EA",
"A 	c #8503E1",
"B 	c #0066B1",
"C 	c #0068B1",
"D 	c #006BB3",
"E 	c #0071B5",
"F 	c #0074B7",
"G 	c #0078B9",
"H 	c #007DBA",
"I 	c #007FBC",
"J 	c #0083BE",
"K 	c #8602E1",
"L 	c #0056AB",
"M 	c #005BAC",
"N 	c #005FAD",
"O 	c #0063AF",
"P 	c #0067B1",
"Q 	c #006AB3",
"R 	c #006DB4",
"S 	c #0072B6",
"T 	c #0076B7",
"U 	c #007ABA",
"V 	c #007EBB",
"W 	c #0082BD",
"X 	c #0085BF",
"Y 	c #0089C0",
"Z 	c #008DC2",
"` 	c #0091C4",
" .	c #0095C6",
"..	c #005DAD",
"+.	c #0061AD",
"@.	c #008BC1",
"#.	c #008FC3",
"$.	c #0093C5",
"%.	c #0097C6",
"&.	c #009BC8",
"*.	c #009FCA",
"=.	c #0099C7",
"-.	c #009DC9",
";.	c #00A1CB",
">.	c #00A4CD",
",.	c #00A7CE",
"'.	c #7D03D7",
").	c #7C04D6",
"!.	c #00A3CC",
"~.	c #00A7CD",
"{.	c #00AACF",
"].	c #00AED1",
"^.	c #004CA5",
"/.	c #0051A7",
"(.	c #7A04D4",
"_.	c #7904D2",
":.	c #7704D1",
"<.	c #7604D0",
"[.	c #7504CE",
"}.	c #7404CC",
"|.	c #7205CA",
"1.	c #7105C9",
"2.	c #7005C7",
"3.	c #6F05C6",
"4.	c #6D05C4",
"5.	c #6B05C2",
"6.	c #00A5CC",
"7.	c #00A9CE",
"8.	c #00ACD0",
"9.	c #00B0D2",
"0.	c #00B4D3",
"a.	c #004EA7",
"b.	c #0052A8",
"c.	c #7B04D4",
"d.	c #7904D3",
"e.	c #7804D2",
"f.	c #7704D0",
"g.	c #7604CF",
"h.	c #7404CD",
"i.	c #7305CB",
"j.	c #7205C9",
"k.	c #7105C8",
"l.	c #6F05C7",
"m.	c #6E05C5",
"n.	c #6C05C3",
"o.	c #6A05C1",
"p.	c #6A07C0",
"q.	c #00ABCF",
"r.	c #00AFD1",
"s.	c #00B2D3",
"t.	c #00B6D5",
"u.	c #0050A7",
"v.	c #0054A9",
"w.	c #0057AA",
"x.	c #7B05D6",
"y.	c #6A06C0",
"z.	c #6906BF",
"A.	c #6805BD",
"B.	c #00ADCF",
"C.	c #00B1D2",
"D.	c #00B5D4",
"E.	c #00B8D5",
"F.	c #00BCD7",
"G.	c #0053A8",
"H.	c #0056AA",
"I.	c #005AAB",
"J.	c #7905D3",
"K.	c #7504CF",
"L.	c #7005C8",
"M.	c #6906C0",
"N.	c #6806BE",
"O.	c #6707BD",
"P.	c #00B3D3",
"Q.	c #00B7D5",
"R.	c #00BAD6",
"S.	c #00BDD8",
"T.	c #0059AB",
"U.	c #005CAC",
"V.	c #0060AE",
"W.	c #7805D0",
"X.	c #7405CB",
"Y.	c #6E05C6",
"Z.	c #6806BF",
"`.	c #6706BD",
" +	c #6507BB",
".+	c #00B9D6",
"++	c #00BDD7",
"@+	c #00C0D9",
"#+	c #005EAD",
"$+	c #0062AF",
"%+	c #7505CE",
"&+	c #6C05C2",
"*+	c #6606BD",
"=+	c #6607BB",
"-+	c #00BBD7",
";+	c #00BFD8",
">+	c #00C1DA",
",+	c #0061AE",
"'+	c #0064B0",
")+	c #0068B2",
"!+	c #006CB3",
"~+	c #00ADD0",
"{+	c #00B1D3",
"]+	c #00C1D9",
"^+	c #006EB4",
"/+	c #0076B8",
"(+	c #007BB8",
"_+	c #6F06C7",
":+	c #6A06C1",
"<+	c #0070B5",
"[+	c #007CBA",
"}+	c #0080BC",
"|+	c #0087C0",
"1+	c #008BC2",
"2+	c #008FC2",
"3+	c #0097C5",
"4+	c #009AC7",
"5+	c #009ECA",
"6+	c #00A2CC",
"7+	c #00A6CD",
"8+	c #00B2D2",
"9+	c #00B8D6",
"0+	c #00BDD9",
"a+	c #0086BF",
"b+	c #00A0CB",
"c+	c #00A8CE",
"d+	c #00B7D6",
"e+	c #008CC0",
"f+	c #0097C7",
"g+	c #009FC9",
"h+	c #00A9CF",
"i+	c #6906BE",
"j+	c #6806BD",
"k+	c #6607BC",
"l+	c #6407BA",
"m+	c #6406B9",
"n+	c #6206B7",
"o+	c #6706BC",
"p+	c #6506BB",
"q+	c #6306B7",
"r+	c #6207B6",
"s+	c #5F07B5",
"t+	c #6506BA",
"u+	c #6406B8",
"v+	c #6107B5",
"w+	c #5F07B4",
"x+	c #5D07B2",
"y+	c #5C07B0",
"z+	c #5B07AE",
"A+	c #5A07AD",
"B+	c #5808AB",
"C+	c #5708AA",
"D+	c #5608A7",
"E+	c #5408A6",
"F+	c #5308A4",
"G+	c #5208A3",
"H+	c #5008A1",
"I+	c #4F09A0",
"J+	c #4D099E",
"K+	c #4C099D",
"L+	c #4B099B",
"M+	c #6306B8",
"N+	c #5E07B3",
"O+	c #5D07B0",
"P+	c #5B07AF",
"Q+	c #5A07AE",
"R+	c #5907AC",
"S+	c #5608A9",
"T+	c #5508A7",
"U+	c #5408A5",
"V+	c #5208A4",
"W+	c #5108A2",
"X+	c #5009A1",
"Y+	c #4D099F",
"Z+	c #4C099E",
"`+	c #4B099C",
" @	c #4A099B",
".@	c #480999",
"+@	c #6007B5",
"@@	c #5907AD",
"#@	c #4B099D",
"$@	c #49099A",
"%@	c #480998",
"&@	c #460B95",
"*@	c #5F07B3",
"=@	c #5508A6",
"-@	c #5009A0",
";@	c #470A97",
">@	c #450A95",
",@	c #470998",
"'@	c #460A96",
")@	c #440A94",
"!@	c #5908AC",
"~@	c #5308A5",
"{@	c #440A93",
"            . + @ # $ % & * = - ; > , ' ) ! ~ { ] ^             ",
"            / ( _ : < * [ } | 1 2 3 4 5 6 { 7 8 9 0             ",
"            a $ % & b = - ; > , 4 ) ! ~ { 8 ^ c 0 d             ",
"            e f * [ } | g , h 4 5 6 { 7 8 i j k l               ",
"            m b } n 1 > , 4 ) o ~ p 8 ^ c 0 q r                 ",
"            s t | g , h u ! 6 { 7 v i j k w x                   ",
"            n 1 > y 4 )                                         ",
"            z , h u ! 6                                         ",
"            3 4 ) o A 7             B C D E F G H I J           ",
"            ) ! K { 7 ^   L M N O P Q R S T U V W X Y Z `  .    ",
"            o A 7 8 9 j   ..+.                    @.#.$.%.&.*.  ",
"            { ] ^ i 0 k                               =.-.;.>.,.",
"            8 9 j k '.).                              *.!.~.{.].",
"        ^./.c 0 q ).(._.:.<.[.}.|.1.2.3.4.5.          6.7.8.9.0.",
"      a.b.L k w c.d.e.f.g.h.i.j.k.l.m.n.o.p.          q.r.s.t.  ",
"    u.v.w.  x.(._.:.g.[.}.|.1.2.3.4.5.y.z.A.        B.C.D.E.F.  ",
"  G.H.I.    J.e.f.K.h.i.j.L.3.m.n.o.M.N.O.          P.Q.R.S.    ",
"  T.U.V.    W.g.[.X.|.1.2.Y.4.5.y.Z.`. +        C.D..+++@+      ",
"M #+$+B     %+h.i.j.L.3.m.&+o.M.N.*+=+        P.Q.-+;+>+        ",
",+'+)+!+    i.|.k.2.Y.4.                ~+{+D..+++]+            ",
"B Q ^+S /+(+  _+Y.m.5.:+            8.9.P.Q.-+;+                ",
"  <+F G [+}+J |+1+2+  3+4+5+6+7+{.].8+D.9+0+                    ",
"    U V W a+Y Z `  .=.-.b+>.c+8.9.0.d+                          ",
"          e+2+$.f+&.g+!.7+h+                                    ",
"            i+j+k+l+m+n+                                        ",
"            o+p+m+q+r+s+                                        ",
"            t+u+n+v+w+x+y+z+A+B+C+D+E+F+G+H+I+J+K+L+            ",
"            M+r+w+N+O+P+Q+R+B+S+T+U+V+W+X+Y+Z+`+ @.@            ",
"            +@w+x+y+z+@@B+C+D+E+F+G+X+I+J+#@ @$@%@&@            ",
"            *@O+P+A+R+C+S+=@U+G+W+-@Y+K+`+$@.@;@>@              ",
"            O+z+@@B+C+T+E+F+G+X+I+J+#@ @$@,@'@)@                ",
"            Q+!@C+S+=@~@G+W+-@Y+K+`+$@.@;@>@{@                  "};
