/* XPM */
static char * icon64_xpm[] = {
"64 64 415 2",
"  	c None",
". 	c #9D00FC",
"+ 	c #9B00FC",
"@ 	c #9B00FB",
"# 	c #9A00FA",
"$ 	c #9900F8",
"% 	c #9801F7",
"& 	c #9601F6",
"* 	c #9601F5",
"= 	c #9501F5",
"- 	c #9401F4",
"; 	c #9401F2",
"> 	c #9301F1",
", 	c #9201F0",
"' 	c #9101EE",
") 	c #9001ED",
"! 	c #9001EC",
"~ 	c #8F02EC",
"{ 	c #8E02EB",
"] 	c #8E02EA",
"^ 	c #8D02E9",
"/ 	c #8B02E8",
"( 	c #8A02E7",
"_ 	c #8A02E6",
": 	c #8902E5",
"< 	c #8802E4",
"[ 	c #8702E3",
"} 	c #8702E2",
"| 	c #8602E1",
"1 	c #8503E1",
"2 	c #8503E0",
"3 	c #8403DF",
"4 	c #8203DD",
"5 	c #8103DB",
"6 	c #9C00FB",
"7 	c #9A00FB",
"8 	c #9501F4",
"9 	c #9301F2",
"0 	c #9201EF",
"a 	c #8F02EB",
"b 	c #8D02EA",
"c 	c #8802E3",
"d 	c #8602E2",
"e 	c #8603E1",
"f 	c #8403E0",
"g 	c #8103DC",
"h 	c #8003DB",
"i 	c #9B00FA",
"j 	c #8B02E9",
"k 	c #7E03DA",
"l 	c #9800F8",
"m 	c #8203DC",
"n 	c #8003DA",
"o 	c #7F03DA",
"p 	c #7E03D8",
"q 	c #9701F7",
"r 	c #9801F6",
"s 	c #9201F1",
"t 	c #8F01EC",
"u 	c #8303DF",
"v 	c #7F03D9",
"w 	c #7E03D9",
"x 	c #7E04D9",
"y 	c #9701F6",
"z 	c #8A02E8",
"A 	c #8902E4",
"B 	c #7D03D7",
"C 	c #9601F4",
"D 	c #9101ED",
"E 	c #8A02E5",
"F 	c #8303DE",
"G 	c #7E02D7",
"H 	c #9601F3",
"I 	c #9201EE",
"J 	c #7D05D7",
"K 	c #9501F3",
"L 	c #7D03D8",
"M 	c #7C04D6",
"N 	c #7C04D7",
"O 	c #9101EF",
"P 	c #7B04D5",
"Q 	c #7A04D4",
"R 	c #7A04D3",
"S 	c #9001EE",
"T 	c #8F03ED",
"U 	c #8D03EA",
"V 	c #8C03E9",
"W 	c #0068B1",
"X 	c #0069B3",
"Y 	c #006CB2",
"Z 	c #006EB4",
"` 	c #0070B5",
" .	c #0071B6",
"..	c #0073B7",
"+.	c #0075B7",
"@.	c #0077B8",
"#.	c #0079B9",
"$.	c #007CBA",
"%.	c #007DBA",
"&.	c #007FBD",
"*.	c #8B03E7",
"=.	c #005EAD",
"-.	c #005FAE",
";.	c #0061AF",
">.	c #0063AF",
",.	c #0065B0",
"'.	c #0067B1",
").	c #0069B2",
"!.	c #006BB3",
"~.	c #006DB4",
"{.	c #006FB5",
"].	c #0071B5",
"^.	c #0072B6",
"/.	c #0074B7",
"(.	c #0076B8",
"_.	c #0078B9",
":.	c #007ABA",
"<.	c #007CBB",
"[.	c #007EBB",
"}.	c #0080BC",
"|.	c #0082BD",
"1.	c #0084BE",
"2.	c #0086BF",
"3.	c #0088C0",
"4.	c #008AC1",
"5.	c #8903E5",
"6.	c #0059AB",
"7.	c #005BAC",
"8.	c #005CAC",
"9.	c #0060AE",
"0.	c #0062AF",
"a.	c #0064B0",
"b.	c #0066B1",
"c.	c #0068B2",
"d.	c #006AB2",
"e.	c #006CB3",
"f.	c #0075B8",
"g.	c #007BBA",
"h.	c #007DBB",
"i.	c #007FBC",
"j.	c #0081BD",
"k.	c #0083BE",
"l.	c #0085BE",
"m.	c #0087BF",
"n.	c #0089C0",
"o.	c #008BC1",
"p.	c #008DC2",
"q.	c #008EC3",
"r.	c #0090C4",
"s.	c #0092C5",
"t.	c #8703E4",
"u.	c #0056A9",
"v.	c #0058AA",
"w.	c #005AAB",
"x.	c #006BB4",
"y.	c #006CB4",
"z.	c #006EB5",
"A.	c #0074B6",
"B.	c #0078BA",
"C.	c #007ABB",
"D.	c #008CC1",
"E.	c #008EC2",
"F.	c #0090C3",
"G.	c #0091C4",
"H.	c #0093C5",
"I.	c #0095C6",
"J.	c #0097C7",
"K.	c #009AC9",
"L.	c #8603E2",
"M.	c #005DAC",
"N.	c #005FAD",
"O.	c #008FC3",
"P.	c #0094C5",
"Q.	c #0096C6",
"R.	c #0098C7",
"S.	c #009AC8",
"T.	c #009CC9",
"U.	c #009FCA",
"V.	c #0092C4",
"W.	c #0099C8",
"X.	c #009BC8",
"Y.	c #009DC9",
"Z.	c #00A1CB",
"`.	c #00A4CB",
" +	c #0095C5",
".+	c #009ECA",
"++	c #00A0CB",
"@+	c #00A2CB",
"#+	c #00A4CC",
"$+	c #00A6CD",
"%+	c #7D04D7",
"&+	c #009BC9",
"*+	c #00A3CC",
"=+	c #00A5CD",
"-+	c #00A7CE",
";+	c #00A9CF",
">+	c #00ABCF",
",+	c #00A2CC",
"'+	c #00A8CE",
")+	c #00AACF",
"!+	c #00ACD0",
"~+	c #00AED1",
"{+	c #00ADD0",
"]+	c #00AFD1",
"^+	c #00B1D2",
"/+	c #004EA5",
"(+	c #7904D3",
"_+	c #7804D2",
":+	c #7804D1",
"<+	c #7704D0",
"[+	c #7604D0",
"}+	c #7604CF",
"|+	c #7504CE",
"1+	c #7404CD",
"2+	c #7305CB",
"3+	c #7305CA",
"4+	c #7205CA",
"5+	c #7105C9",
"6+	c #7105C8",
"7+	c #7005C8",
"8+	c #7005C7",
"9+	c #6F05C6",
"0+	c #6E05C5",
"a+	c #6D05C4",
"b+	c #6B05C1",
"c+	c #00B0D2",
"d+	c #00B2D2",
"e+	c #00B4D4",
"f+	c #004DA5",
"g+	c #004FA6",
"h+	c #0051A7",
"i+	c #7904D2",
"j+	c #7704D1",
"k+	c #7504CF",
"l+	c #7404CB",
"m+	c #7205C9",
"n+	c #6C05C3",
"o+	c #6B05C2",
"p+	c #6A05C0",
"q+	c #00ABD0",
"r+	c #00B3D3",
"s+	c #00B5D4",
"t+	c #00B8D5",
"u+	c #004EA6",
"v+	c #0050A7",
"w+	c #0052A8",
"x+	c #0054A8",
"y+	c #7404CE",
"z+	c #6F05C7",
"A+	c #6A06C1",
"B+	c #6906BF",
"C+	c #00B2D3",
"D+	c #00B4D3",
"E+	c #00B6D4",
"F+	c #0053A8",
"G+	c #0055A9",
"H+	c #0057AA",
"I+	c #7E03D7",
"J+	c #7405CB",
"K+	c #6E05C6",
"L+	c #6C05C2",
"M+	c #6A05C1",
"N+	c #6A06C0",
"O+	c #6906C0",
"P+	c #6806BF",
"Q+	c #00B7D5",
"R+	c #00B9D6",
"S+	c #00BBD6",
"T+	c #004DA6",
"U+	c #0054A9",
"V+	c #7D03D6",
"W+	c #7404CC",
"X+	c #6806BE",
"Y+	c #6707BD",
"Z+	c #00BAD6",
"`+	c #00BCD7",
" @	c #005CAD",
".@	c #6806BD",
"+@	c #00BBD7",
"@@	c #00BDD7",
"#@	c #7A04D5",
"$@	c #6706BE",
"%@	c #6706BD",
"&@	c #00BED8",
"*@	c #005DAD",
"=@	c #6606BC",
"-@	c #00BFD8",
";@	c #0054AA",
">@	c #0056AA",
",@	c #6606BB",
"'@	c #00B6D5",
")@	c #00C0D9",
"!@	c #0061AE",
"~@	c #6506BB",
"{@	c #00BDD8",
"]@	c #00C1DA",
"^@	c #0057A9",
"/@	c #0066B0",
"(@	c #6506BA",
"_@	c #00C3DA",
":@	c #00B0D3",
"<@	c #00C1D9",
"[@	c #00AED2",
"}@	c #00B8D6",
"|@	c #00C2D9",
"1@	c #006FB4",
"2@	c #00BFD9",
"3@	c #00C2DA",
"4@	c #0075B9",
"5@	c #00C0D8",
"6@	c #0073B6",
"7@	c #6F06C7",
"8@	c #6F06C5",
"9@	c #00A5CE",
"0@	c #00A0CA",
"a@	c #0094C6",
"b@	c #00A9CE",
"c@	c #007AB9",
"d@	c #0085BF",
"e@	c #00ADD1",
"f@	c #007EBC",
"g@	c #008CC2",
"h@	c #00B5D5",
"i@	c #0097C6",
"j@	c #0098C6",
"k@	c #009DC8",
"l@	c #009FCB",
"m@	c #00A4CD",
"n@	c #00A6CC",
"o@	c #6406B9",
"p@	c #6306B8",
"q@	c #6306B7",
"r@	c #6206B7",
"s@	c #6207B6",
"t@	c #6406B8",
"u@	c #6107B5",
"v@	c #6706BC",
"w@	c #6506B9",
"x@	c #6107B6",
"y@	c #5F07B4",
"z@	c #6706BB",
"A@	c #5F07B5",
"B@	c #5E07B3",
"C@	c #5E07B2",
"D@	c #5D07B1",
"E@	c #5C07B0",
"F@	c #5C07AF",
"G@	c #5B07AF",
"H@	c #5A07AE",
"I@	c #5A07AD",
"J@	c #5907AC",
"K@	c #5808AC",
"L@	c #5808AB",
"M@	c #5708AA",
"N@	c #5608A9",
"O@	c #5608A8",
"P@	c #5508A7",
"Q@	c #5508A6",
"R@	c #5408A5",
"S@	c #5308A5",
"T@	c #5308A4",
"U@	c #5208A3",
"V@	c #5108A2",
"W@	c #5009A1",
"X@	c #4F09A0",
"Y@	c #4E099F",
"Z@	c #4D099F",
"`@	c #4C099E",
" #	c #4C099D",
".#	c #4B099C",
"+#	c #4A099C",
"@#	c #6206B6",
"##	c #5D07B2",
"$#	c #5D07B0",
"%#	c #5B07AE",
"&#	c #5907AD",
"*#	c #5408A6",
"=#	c #5009A0",
"-#	c #4D099E",
";#	c #4B099D",
">#	c #4A099B",
",#	c #490999",
"'#	c #5608A7",
")#	c #49099A",
"!#	c #5908AC",
"~#	c #480999",
"{#	c #480998",
"]#	c #6108B5",
"^#	c #5208A4",
"/#	c #5108A1",
"(#	c #470A98",
"_#	c #460B97",
":#	c #5108A3",
"<#	c #470998",
"[#	c #470A97",
"}#	c #460A95",
"|#	c #6008B4",
"1#	c #5008A1",
"2#	c #460A96",
"3#	c #5E08B3",
"4#	c #5708A9",
"5#	c #4F099F",
"6#	c #450A95",
"7#	c #5D08B0",
"8#	c #450A94",
"9#	c #5B08AF",
"0#	c #470A96",
"a#	c #5B08AE",
"b#	c #5808AA",
"c#	c #440A93",
"d#	c #5A07AC",
"e#	c #5908AD",
"f#	c #5809AC",
"g#	c #490998",
"h#	c #430A92",
"                        . + @ # # $ % % & * = - ; > > , ' ' ) ! ~ { ] ^ ^ / ( _ : < < [ } | 1 2 3 3 4 5                         ",
"                        6 7 # $ $ % & & = 8 ; 9 > , 0 ' ) ) ~ a ] b ^ / / _ : : < c } d e 2 f 3 4 4 g h                         ",
"                        i # $ % % & * 8 - ; > > , ' ' ) ! ~ { ] ^ j / ( _ : < < [ } e 1 2 3 3 4 g 5 h k                         ",
"                        l $ % & * = 8 ; 9 > , 0 ' ) ) ~ a ] b ^ / / _ : : < c } d e 2 f 3 4 m g h n o p                         ",
"                        q r & * 8 - ; > s , ' ' ) t a { ] ^ j / ( _ : < c [ } e 1 2 3 u 4 g 5 h o v w x                         ",
"                        y * = 8 ; 9 > , 0 ' ) ! ~ a ] b ^ / z _ : A < [ } d e 2 f 3 4 m g h n o w p B                           ",
"                        C 8 - ; > s , ' D ) t a { ] ^ j / ( E : < c [ } e 1 2 3 F 4 g 5 h o v p p G                             ",
"                        H ; 9 > , I ' ) ! ~ { ] b ^ / z _ : A < [ } d e 2 3 3 4 g g h n o w p B J                               ",
"                        K > , , ' D ) t a { ] ^ j / ( E : < c [ d e 1 2 3 4 4 g 5 h o v p L B M                                 ",
"                        9 , ' ' ) ! ~ { ] b ^ / ( _ : A < [ } d e 2 3 3 4 g g h n v w p B N M                                   ",
"                        O ' D ) t a { b ^ / / _ : : < c [ d e 2 2 3 4 4 g h n o v p L B M P                                     ",
"                        ' ) ! ~ { ] ^ ^ / ( _ : A < [ } | 1 2 3 3 4 g g h n v w p B N M Q R                                     ",
"                        S t a { b ^ / / _ : : <                                                                                 ",
"                        T { ] ^ ^ / ( _ : < < [                                                                                 ",
"                        U b ^ / / _ : : < c } d                                                                                 ",
"                        V j / ( _ : < c [ } e 1                                                                                 ",
"                        V / _ : A < [ } d e 2 f                               W X Y Z `  ...+.@.#.$.%.&.                        ",
"                        *._ : < c [ } e 1 2 3 F                 =.-.;.>.,.'.).!.~.{.].^./.(._.:.<.[.}.|.1.2.3.4.                ",
"                        5.A < [ } d e 2 f 3 4 m         6.7.8.=.9.0.a.b.c.d.e.Z ` ^./.f.@.#.g.h.i.j.k.l.m.n.o.p.q.r.s.          ",
"                        t.c [ d e 1 2 3 F 4 g 5   u.v.w.8.=.-.;.>.,.'.).x.y.z. .A.    B.C.h.[.}.|.1.2.3.4.D.E.F.G.H.I.J.K.      ",
"                        L.} d e 2 3 3 4 g g h n   6.7.M.N.9.0.a.                                  m.n.o.p.O.G.s.P.Q.R.S.T.U.    ",
"                        L.e 2 2 3 4 4 g 5 h o v   8.=.9.                                                F.V.P.I.J.W.X.Y.U.Z.`.  ",
"                        1 2 3 3 4 g g h n v w p                                                            +Q.R.S.T..+++@+#+$+  ",
"                        2 3 4 4 g h n o v p L %+                                                            W.&+Y.U.Z.*+=+-+;+>+",
"                        F 4 g 5 h n v w p B N M                                                               .+++,+#+$+'+)+!+~+",
"                        g g h n o v p L %+M Q Q                                                               Z.*+=+-+;+>+{+]+^+",
"                    /+  5 h o v w p B M M Q R (+_+:+<+[+}+|+|+1+2+3+4+5+6+7+8+9+0+0+a+b+                      #+$+'+)+!+~+c+d+e+",
"                f+g+h+  n o v p B %+M Q Q (+i+_+j+<+}+k+|+1+l+2+4+m+5+7+8+9+9+0+a+n+o+p+                      -+;+q+{+]+^+r+s+t+",
"              u+v+w+x+  p w p B M M Q (+(+_+:+<+[+}+|+y+1+2+3+4+5+6+8+z+9+0+0+a+o+b+A+B+                      )+!+~+c+C+D+E+t+  ",
"            g+h+F+G+H+  I+B %+M Q Q (+_+:+j+<+}+k+|+1+J+2+4+m+5+7+8+9+K+0+a+L+o+M+N+O+P+                    !+{+]+^+r+s+Q+R+S+  ",
"        T+v+w+U+u.v.w.  V+M M Q (+i+_+:+<+[+}+|+1+W+2+3+4+5+6+8+z+9+0+0+n+o+b+A+O+B+X+Y+                  !+~+c+C+D+E+t+Z+`+    ",
"        h+F+G+H+6. @    M Q Q (+_+:+j+<+}+k+|+1+2+2+4+m+6+7+8+9+K+0+a+L+o+M+N+B+P+X+.@                    ]+^+r+s+Q+R++@@@      ",
"      w+U+u.v.w.8.      #@(+i+_+j+<+[+}+|+1+W+2+4+4+5+6+8+z+9+0+a+n+o+b+A+O+B+X+$@%@                    c+C+e+E+t+Z+`+&@        ",
"    F+G+H+6.7.*@        (+_+:+j+<+}+|+|+1+2+2+4+m+6+7+8+9+K+0+a+o+o+A+N+B+P+X+%@=@                  ~+^+r+s+Q+R++@@@-@          ",
"  ;@>@v.w.8.=.9.        i+j+<+}+}+|+1+W+2+4+m+5+6+8+z+9+0+a+n+o+b+N+O+B+X+$@%@,@                  c+C+e+'@t+Z+`+&@)@            ",
"  H+6.7.*@N.!@0.        :+[+}+|+|+1+2+2+4+5+6+7+8+9+0+0+a+o+o+A+N+B+P+X+%@=@~@                  d+r+s+Q+R++@{@-@]@              ",
"^@w.8.=.9.0.a./@        }+}+|+1+W+2+4+m+5+7+8+z+9+0+a+n+o+M+N+O+B+X+$@%@=@(@                ^+r+e+'@t+Z+`+&@)@_@                ",
"7.*@-.!@>.,.'.d.        |+|+1+2+3+4+5+6+7+8+9+0+0+a+o+b+A+O+B+P+X+%@=@=@(@              :@d+D+E+Q+R++@{@-@<@                    ",
"=.9.0.a.b.W d.e.        1+W+2+4+m+5+7+8+9+9+0+a+                                    [@^+r+s+Q+}@Z+`+&@)@|@                      ",
"!@>.,.'.).!.~.1@`       2+3+4+5+6+7+z+9+0+0+a+o+                                ~+c+C+D+E+t+Z++@{@2@3@                          ",
",.b.W d.e.Z `  ...4@    4+m+5+7+8+9+9+0+a+L+o+M+                          )+{+]+^+r+s+Q+R+S+@@&@5@                              ",
"  ).!.~.{.].6@/.(._.:.<.      7@8@0+0+n+o+b+A+O+                  9@'+)+!+~+c+C+D+E+t+Z+`+&@2@                                  ",
"  e.Z ` ^./.f.@.#.g.h.i.j.k.l.m.                        0@@+#+$+'+;+q+{+]+^+r+s+Q+R++@@@5@                                      ",
"    ].6@+.@._.:.<.[.}.|.1.2.3.4.D.E.F.G.P.a@J.W.X.Y.U.Z.*+=+-+b@)+!+~+c+C+e+E+t+Z+`+                                            ",
"      (._.c@g.h.i.j.k.d@m.n.o.p.O.G.H.P.Q.R.S.T..+++@+#+$+'+)+!+e@]+^+r+s+Q+R+                                                  ",
"          h.f@}.|.1.2.3.4.g@E.F.V.P.I.J.W.X.Y.U.Z.*+=+-+b@>+{+~+c+C+e+h@                                                        ",
"                2.m.n.o.p.O.G.H. +i@R.S.T..+++@+#+$+'+)+!+e@:@                                                                  ",
"                        r.V. +Q.j@W.&+k@l@Z.m@n@$+                                                                              ",
"                                                                                                                                ",
"                        B+X+%@%@=@~@(@o@p@q@r@s@                                                                                ",
"                        X+%@=@=@~@o@t@p@r@s@u@u@                                                                                ",
"                        v@=@~@w@o@p@q@r@x@u@y@y@                                                                                ",
"                        z@(@o@t@p@r@s@u@A@y@B@C@D@E@F@G@H@I@J@K@L@M@N@O@P@Q@R@S@T@U@V@V@W@X@Y@Z@`@ #.#+#                        ",
"                        w@o@p@q@@#x@u@y@y@B@##$#E@G@%#I@&#J@L@M@M@N@P@Q@*#R@T@U@U@V@W@=#X@Z@-# #;#.#>#,#                        ",
"                        p@p@r@s@u@A@y@B@C@D@E@F@%#H@I@J@L@L@M@N@'#P@*#R@S@T@U@V@V@W@X@Y@Z@`@ #.#>#>#)#,#                        ",
"                        @#@#x@u@y@B@B@##$#E@G@%#I@&#!#L@M@M@N@P@Q@*#S@T@U@U@V@W@=#X@Z@-# #;#.#>#)#)#~#{#                        ",
"                        ]#u@A@y@B@##D@E@F@%#H@I@J@L@L@M@N@'#P@*#R@T@^#U@V@/#W@X@Y@-#`@ #.#>#>#)#~#{#(#_#                        ",
"                        ]#y@B@B@##E@F@G@%#I@J@!#L@M@M@N@P@Q@*#S@T@U@:#V@W@=#X@Z@-# #;#.#>#)#)#~#<#[#}#                          ",
"                        |#B@##D@E@G@%#H@I@J@L@L@M@N@'#P@*#R@T@^#U@V@1#W@X@Y@-#`@ #.#>#>#)#~#{#(#2#}#                            ",
"                        3###E@F@G@H@I@J@!#L@M@4#N@P@Q@R@S@T@U@V@V@W@X@5#Z@-# #.#.#>#)#,#~#<#[#}#6#                              ",
"                        7#E@G@%#H@&#J@L@L@M@N@'#P@*#R@T@^#U@V@W@W@X@Z@-#`@ #.#>#>#)#~#{#(#2#}#8#                                ",
"                        9#G@H@I@J@!#L@M@4#N@P@Q@R@S@T@U@V@V@W@X@Y@Z@`@ #.#.#>#)#,#~#<#0#}#6#8#                                  ",
"                        a#I@&#J@L@b#M@N@'#P@*#R@T@^#U@V@W@W@X@Z@-#`@;#.#>#)#)#~#{#[#2#}#8#c#                                    ",
"                        d#e#f#L@M@4#O@P@Q@R@S@T@U@V@V@W@X@Y@Z@`@ #.#+#>#)#~#g#<#0#}#6#8#c#h#                                    "};
