/* XPM */
static char * icon16_xpm[] = {
"16 16 118 2",
"  	c None",
". 	c #9B00F9",
"+ 	c #9601F6",
"@ 	c #9401F2",
"# 	c #9201EE",
"$ 	c #8F02EC",
"% 	c #8D02E9",
"& 	c #8902E5",
"* 	c #8702E2",
"= 	c #8403DF",
"- 	c #8203DC",
"; 	c #9501F4",
"> 	c #9301F1",
", 	c #9001ED",
"' 	c #8E02EA",
") 	c #8A02E7",
"! 	c #8802E4",
"~ 	c #8503E1",
"{ 	c #8203DD",
"] 	c #8003DA",
"^ 	c #7D04D7",
"/ 	c #8F02EB",
"( 	c #8B02E9",
"_ 	c #8103DB",
": 	c #7E03D9",
"< 	c #7C04D6",
"[ 	c #8D02EA",
"} 	c #8802E3",
"| 	c #8902E6",
"1 	c #8602E2",
"2 	c #0062B0",
"3 	c #006AB2",
"4 	c #0071B6",
"5 	c #0079B9",
"6 	c #0080BC",
"7 	c #0088C0",
"8 	c #8403E0",
"9 	c #7F03DA",
"0 	c #0094C5",
"a 	c #009CC9",
"b 	c #00A3CC",
"c 	c #7E03D8",
"d 	c #7A04D4",
"e 	c #00A8CE",
"f 	c #00AFD1",
"g 	c #004FA7",
"h 	c #0057AA",
"i 	c #7C04D7",
"j 	c #7904D3",
"k 	c #7604D0",
"l 	c #7404CD",
"m 	c #7105C9",
"n 	c #6F05C6",
"o 	c #6B05C2",
"p 	c #6906BF",
"q 	c #00ADCF",
"r 	c #00B3D3",
"s 	c #00BBD7",
"t 	c #0054A9",
"u 	c #005BAC",
"v 	c #7804D1",
"w 	c #7504CE",
"x 	c #7305CA",
"y 	c #7005C7",
"z 	c #6E05C5",
"A 	c #6A06C1",
"B 	c #6806BE",
"C 	c #00B0D2",
"D 	c #00B8D5",
"E 	c #00C0D9",
"F 	c #005FAE",
"G 	c #0067B1",
"H 	c #7404CC",
"I 	c #00B4D4",
"J 	c #00BCD7",
"K 	c #006BB3",
"L 	c #0073B6",
"M 	c #007BBA",
"N 	c #1967BE",
"O 	c #3648C3",
"P 	c #3C44C2",
"Q 	c #00A1CB",
"R 	c #00AACF",
"S 	c #00B1D2",
"T 	c #0087C0",
"U 	c #008EC3",
"V 	c #0095C6",
"W 	c #009ECA",
"X 	c #00A5CD",
"Y 	c #00AED1",
"Z 	c #6706BC",
"` 	c #6406B9",
" .	c #6106B6",
"..	c #6306B8",
"+.	c #6107B5",
"@.	c #5D07B2",
"#.	c #5A07AE",
"$.	c #5808AB",
"%.	c #5508A7",
"&.	c #5308A4",
"*.	c #5009A1",
"=.	c #4D099E",
"-.	c #4A0A9A",
";.	c #5E08B3",
">.	c #5C07AF",
",.	c #5907AC",
"'.	c #5608A9",
").	c #5408A5",
"!.	c #5108A2",
"~.	c #4E099F",
"{.	c #4B099C",
"].	c #480999",
"^.	c #460B95",
"/.	c #5208A4",
"(.	c #4C099E",
"_.	c #4A099B",
":.	c #470A98",
"<.	c #440A93",
"      . + @ # $ % & * = -       ",
"      ; > , ' ) ! ~ { ] ^       ",
"      , / ( & * = _ : <         ",
"      [ ) }                     ",
"      | 1 =     2 3 4 5 6 7     ",
"      8 - 9               0 a b ",
"      _ c d                 e f ",
"  g h i j k l m n o p     q r s ",
"t u   v w x y z A B     C D E   ",
"F G   H m n           I J       ",
"K L M N O P   Q R S D           ",
"    T U V W X Y                 ",
"      Z `  .                    ",
"      ..+.@.#.$.%.&.*.=.-.      ",
"      ;.>.,.'.).!.~.{.].^.      ",
"      #.$.%./.*.(._.:.<.        "};
